<?xml version="1.0" encoding="UTF-8"?>
<svg version="1.1" xmlns="http://www.w3.org/2000/svg" width="567" height="567">
<path d="M0 0 C0.73539001 -0.00067474 1.47078003 -0.00134949 2.22845459 -0.00204468 C65.1455873 0.08857496 126.57269839 21.19026064 175.9375 60.25 C176.91847656 61.01828125 177.89945312 61.7865625 178.91015625 62.578125 C192.96476188 73.8218095 206.58204562 86.44127967 217.77734375 100.5390625 C219.15477439 102.26770059 220.56118778 103.97390227 222.00390625 105.6484375 C233.79383966 119.4142161 243.60430124 135.18129875 251.9375 151.25 C252.38802734 152.10384277 252.83855469 152.95768555 253.30273438 153.83740234 C269.17281816 184.20562342 278.85165226 217.262533 282.9375 251.25 C283.08106934 252.38888672 283.08106934 252.38888672 283.22753906 253.55078125 C284.29196936 263.28707558 284.18131252 273.09280272 284.1875 282.875 C284.18851212 284.31246078 284.18851212 284.31246078 284.18954468 285.77896118 C284.17275632 300.80924628 283.60220566 315.42145419 280.9375 330.25 C280.76057617 331.2493457 280.58365234 332.24869141 280.40136719 333.27832031 C277.86171687 347.22227256 274.41020981 360.80412423 269.9375 374.25 C269.68806641 375.01022461 269.43863281 375.77044922 269.18164062 376.55371094 C257.4603155 411.76288422 238.09836565 444.73068485 212.9765625 472.02734375 C211.12499705 474.04562103 209.33917 476.10349135 207.5625 478.1875 C200.57184413 486.17682099 193.03717947 493.4139518 184.7265625 500.015625 C182.85920712 501.51160158 181.02026354 503.04371178 179.2109375 504.609375 C124.23636069 552.16314116 48.24819448 571.66619466 -23.16577148 566.73242188 C-69.81500965 562.90693521 -116.12246547 547.38337876 -155.0625 521.25 C-155.78324707 520.76821289 -156.50399414 520.28642578 -157.24658203 519.79003906 C-167.04195695 513.18530502 -176.21468504 506.07094305 -185.0625 498.25 C-186.26326172 497.21552734 -186.26326172 497.21552734 -187.48828125 496.16015625 C-199.60229177 485.55276217 -211.31457314 474.08830222 -221.0625 461.25 C-221.98920476 460.0635063 -222.91631655 458.87733044 -223.84375 457.69140625 C-263.15417409 406.91490741 -286.21410031 340.84373671 -283.0625 276.25 C-283.01609375 275.27691895 -282.9696875 274.30383789 -282.921875 273.30126953 C-280.8391601 232.96641876 -271.65235827 194.66434739 -254.0625 158.25 C-253.68254883 157.46270508 -253.30259766 156.67541016 -252.91113281 155.86425781 C-244.04260405 137.74422403 -232.80394412 120.87706623 -220.0625 105.25 C-219.6495166 104.73550293 -219.2365332 104.22100586 -218.81103516 103.69091797 C-212.18530468 95.47701619 -204.93463611 87.92133736 -197.5 80.4375 C-196.63785889 79.56609375 -195.77571777 78.6946875 -194.88745117 77.796875 C-179.84550205 62.82755102 -162.3612588 49.7388116 -143.88525391 39.29003906 C-142.03721098 38.23557042 -140.21165349 37.14858818 -138.38671875 36.0546875 C-105.74038864 16.73278714 -66.82532718 4.71716223 -29.0625 1.25 C-28.16217041 1.1660498 -27.26184082 1.08209961 -26.33422852 0.99560547 C-17.55790701 0.24089987 -8.80406848 0.00736523 0 0 Z " fill="#BAE469" transform="translate(283.0625,-0.25)"/>
<path d="M0 0 C2.86604324 -0.04242219 5.73144885 -0.07329676 8.59765625 -0.09765625 C9.80452087 -0.11729431 9.80452087 -0.11729431 11.0357666 -0.1373291 C23.47941721 -0.21650733 33.94404149 4.76392399 43.21875 12.9609375 C54.8098308 24.95324802 58.22734014 39.40203859 58.37890625 55.6015625 C58.39590073 56.56347504 58.4128952 57.52538757 58.43040466 58.51644897 C58.4829258 61.55256807 58.52354179 64.58867919 58.5625 67.625 C58.60672977 70.6683948 58.65364666 73.71169641 58.70530701 76.75497437 C58.73674953 78.63708354 58.76378826 80.51927364 58.78553772 82.40151978 C58.87284203 87.99805506 59.30156132 93.44556521 60 99 C61.42892578 98.58427734 61.42892578 98.58427734 62.88671875 98.16015625 C64.76810547 97.61681641 64.76810547 97.61681641 66.6875 97.0625 C68.54955078 96.52302734 68.54955078 96.52302734 70.44921875 95.97265625 C86.74356117 91.50918951 106.10742149 92.29360436 122 98 C123.19367188 98.42410156 124.38734375 98.84820312 125.6171875 99.28515625 C134.32684378 102.70612628 141.61009583 107.36769466 149 113 C149.72703125 113.54140625 150.4540625 114.0828125 151.203125 114.640625 C167.4658743 127.73015492 178.76370724 149.39266669 181 170 C182.37491017 198.42108837 176.63441074 221.04197206 157.87109375 243.00390625 C149.91429522 251.61230282 137.51376604 262.25718343 125.3984375 263.203125 C114.80389839 263.36738142 107.79003949 261.78349257 100.01953125 254.28515625 C93.83073244 247.28235683 92.19658939 240.68919673 92.58984375 231.40234375 C93.58399246 223.1556435 96.27694868 217.76529975 102.78515625 212.578125 C105.02547679 210.98184723 107.30908292 209.48406153 109.625 208 C117.20940564 203.0394593 121.75318009 196.84843122 124 188 C125.21478139 178.61643354 123.52382151 171.08830886 118.15234375 163.33203125 C112.05146064 155.83602786 105.35254859 151.92065922 95.765625 150.53125 C86.85389129 150.10485126 78.47851738 152.02748711 71.68359375 158.0546875 C69.06642789 160.92512747 66.74639993 163.89972109 64.56640625 167.11328125 C59.09173842 175.10040287 50.97599436 180.18447449 41.59765625 182.5625 C31.66524708 184.23532681 23.66540689 183.0018944 15.03515625 177.8203125 C9.31311632 173.58825671 6.34523022 167.58439921 4 161 C3.55140686 157.88619995 3.55140686 157.88619995 3.38305664 154.52685547 C3.34928704 153.89096937 3.31551744 153.25508327 3.28072453 152.5999279 C3.17095451 150.40035631 3.08301674 148.20074066 3 146 C2.9680592 145.17866829 2.93611839 144.35733658 2.90320969 143.51111603 C2.64559993 136.67778821 2.4430139 129.84311549 2.24609375 123.0078125 C2.18033489 120.77334381 2.11450176 118.5388773 2.04859924 116.30441284 C1.91130636 111.62292031 1.7763592 106.94136672 1.64282227 102.25976562 C1.50816785 97.54967637 1.36950694 92.8397351 1.22680664 88.12988281 C0.33718878 58.74497775 -0.23087805 29.39888296 0 0 Z " fill="#104E67" transform="translate(209,125)"/>
<path d="M0 0 C5.99541683 3.48316727 9.63253064 7.53777836 11.9296875 14.12109375 C13.22559412 22.40909358 12.55985259 29.11943169 7.703125 36.0625 C2.28001867 42.3576036 -3.6116594 44.68253771 -11.8828125 45.49609375 C-19.00134044 45.24777301 -25.15336552 42.57375001 -30.0078125 37.37109375 C-34.27174527 31.94061333 -36.76545353 26.29982158 -36.40625 19.25390625 C-35.11772205 11.07325206 -31.63223755 6.0153884 -25.38671875 0.71484375 C-17.50354245 -4.70899424 -8.32219886 -4.27956489 0 0 Z " fill="#124F67" transform="translate(249.0703125,346.87890625)"/>
</svg>
